<svg xmlns="http://www.w3.org/2000/svg" id="canvas" viewBox="232.340 323.122 820.148 92.121"><path d="M 263.06,326.55 C 262.17 327.31, 261.10 328.50, 259.76 330.95 C 258.42 333.41, 257.84 335.18, 256.35 338.83 C 254.87 342.47, 253.92 344.81, 252.33 349.18 C 250.74 353.54, 250.05 356.07, 248.40 360.64 C 246.76 365.21, 245.67 367.62, 244.09 372.04 C 242.50 376.46, 241.75 378.65, 240.48 382.76 C 239.21 386.87, 238.68 388.96, 237.76 392.59 C 236.84 396.21, 236.35 397.98, 235.87 400.89 C 235.39 403.79, 235.34 405.11, 235.34 407.12 C 235.34 409.12, 235.43 409.89, 235.87 410.91 C 236.31 411.93, 236.72 412.05, 237.55 412.20 C 238.38 412.34, 239.32 412.13, 240.02 411.64 C 240.71 411.14, 241.08 410.34, 241.01 409.74 C 240.93 409.13, 240.20 408.65, 239.65 408.62 C 239.11 408.58, 238.72 409.12, 238.28 409.57 C 237.85 410.02, 237.64 410.68, 237.48 410.88 C 237.31 411.08, 237.38 411.30, 237.46 410.58 C 237.54 409.85, 237.66 409.12, 237.88 407.26 C 238.10 405.41, 238.17 404.15, 238.58 401.31 C 239.00 398.48, 239.19 396.69, 239.95 393.10 C 240.72 389.50, 241.21 387.42, 242.40 383.34 C 243.59 379.25, 244.32 377.09, 245.89 372.68 C 247.46 368.28, 248.55 365.86, 250.25 361.32 C 251.95 356.77, 252.69 354.25, 254.39 349.96 C 256.08 345.66, 257.12 343.38, 258.70 339.83 C 260.29 336.28, 261.20 334.73, 262.30 332.20 C 263.40 329.67, 264.04 328.31, 264.19 327.18 C 264.35 326.05, 263.95 325.80, 263.06 326.55" style="stroke: black; fill: black;"/><path d="M 287.27,340.58 C 286.74 340.86, 286.48 341.33, 285.77 342.44 C 285.05 343.54, 284.59 344.23, 283.71 346.11 C 282.82 347.98, 282.33 349.26, 281.34 351.80 C 280.34 354.35, 279.84 355.90, 278.72 358.85 C 277.60 361.79, 276.94 363.47, 275.73 366.53 C 274.53 369.60, 273.86 371.16, 272.68 374.17 C 271.51 377.17, 270.90 378.74, 269.88 381.55 C 268.85 384.36, 268.36 385.72, 267.57 388.21 C 266.77 390.71, 266.49 391.90, 265.89 394.02 C 265.30 396.15, 264.98 397.21, 264.59 398.84 C 264.20 400.47, 264.02 401.20, 263.94 402.18 C 263.87 403.16, 264.13 403.34, 264.21 403.74 C 264.28 404.15, 264.22 404.08, 264.31 404.22 C 264.41 404.37, 264.48 404.49, 264.69 404.46 C 264.89 404.43, 265.04 404.42, 265.33 404.08 C 265.63 403.73, 265.77 403.64, 266.17 402.74 C 266.57 401.85, 266.82 401.18, 267.32 399.60 C 267.82 398.01, 268.08 396.92, 268.69 394.82 C 269.30 392.72, 269.60 391.57, 270.38 389.11 C 271.17 386.65, 271.63 385.32, 272.61 382.53 C 273.60 379.74, 274.14 378.16, 275.29 375.18 C 276.44 372.19, 277.11 370.63, 278.38 367.61 C 279.65 364.58, 280.36 362.93, 281.64 360.05 C 282.93 357.17, 283.72 355.73, 284.79 353.21 C 285.86 350.70, 286.31 349.41, 287.00 347.47 C 287.69 345.52, 287.96 344.76, 288.25 343.47 C 288.53 342.18, 288.60 341.60, 288.41 341.02 C 288.21 340.44, 287.80 340.30, 287.27 340.58" style="stroke: black; fill: black;"/><path d="M 246.71,381.95 C 246.99 382.15, 247.03 382.18, 247.59 382.18 C 248.14 382.18, 248.39 382.16, 249.49 381.95 C 250.59 381.75, 251.38 381.49, 253.09 381.15 C 254.80 380.81, 255.91 380.54, 258.05 380.25 C 260.18 379.97, 261.38 379.82, 263.75 379.73 C 266.12 379.63, 267.61 379.69, 269.89 379.79 C 272.17 379.89, 273.39 380.13, 275.15 380.24 C 276.91 380.35, 277.60 380.31, 278.68 380.33 C 279.76 380.36, 280.13 380.50, 280.55 380.35 C 280.98 380.20, 281.09 379.98, 280.81 379.59 C 280.52 379.20, 280.16 378.88, 279.12 378.42 C 278.07 377.95, 277.38 377.67, 275.58 377.26 C 273.79 376.85, 272.51 376.58, 270.12 376.37 C 267.74 376.15, 266.15 376.15, 263.65 376.20 C 261.15 376.25, 259.90 376.40, 257.63 376.61 C 255.37 376.83, 254.18 376.89, 252.31 377.27 C 250.44 377.64, 249.47 377.91, 248.30 378.48 C 247.13 379.06, 246.89 379.60, 246.47 380.14 C 246.04 380.68, 246.12 380.82, 246.17 381.18 C 246.22 381.54, 246.43 381.75, 246.71 381.95" style="stroke: black; fill: black;"/><path d="M 295.80,391.88 C 296.26 392.26, 296.78 392.40, 298.06 392.55 C 299.34 392.71, 300.28 392.90, 302.20 392.64 C 304.12 392.38, 305.46 391.94, 307.66 391.26 C 309.86 390.58, 311.06 390.13, 313.19 389.23 C 315.32 388.33, 316.56 387.77, 318.32 386.76 C 320.08 385.75, 320.89 385.23, 321.98 384.18 C 323.08 383.13, 323.39 382.61, 323.81 381.51 C 324.22 380.42, 324.39 379.77, 324.06 378.70 C 323.72 377.62, 323.32 376.96, 322.12 376.16 C 320.93 375.36, 320.05 374.95, 318.07 374.70 C 316.10 374.46, 314.87 374.41, 312.25 374.91 C 309.63 375.41, 308.00 375.94, 304.99 377.19 C 301.98 378.44, 300.21 379.38, 297.19 381.16 C 294.17 382.94, 292.47 384.07, 289.90 386.10 C 287.33 388.13, 285.99 389.22, 284.32 391.32 C 282.65 393.42, 281.99 394.63, 281.56 396.61 C 281.14 398.59, 281.30 399.64, 282.17 401.23 C 283.04 402.82, 284.03 403.51, 285.90 404.56 C 287.78 405.61, 288.94 406.12, 291.56 406.48 C 294.18 406.84, 296.16 406.68, 298.99 406.36 C 301.81 406.05, 303.47 405.60, 305.67 404.90 C 307.88 404.19, 309.21 403.48, 310.01 402.84 C 310.82 402.21, 310.70 401.88, 309.71 401.71 C 308.73 401.55, 307.32 401.84, 305.10 402.02 C 302.88 402.20, 301.28 402.40, 298.64 402.60 C 296.00 402.79, 294.21 403.10, 291.90 402.98 C 289.60 402.86, 288.69 402.57, 287.12 401.99 C 285.54 401.41, 284.72 401.05, 284.05 400.10 C 283.38 399.14, 283.28 398.60, 283.78 397.22 C 284.28 395.84, 284.96 394.96, 286.54 393.19 C 288.13 391.43, 289.28 390.29, 291.70 388.39 C 294.13 386.49, 295.76 385.33, 298.65 383.69 C 301.54 382.05, 303.32 381.26, 306.17 380.20 C 309.03 379.15, 310.59 378.86, 312.91 378.43 C 315.24 378.00, 316.21 377.99, 317.80 378.04 C 319.38 378.08, 319.96 378.37, 320.83 378.64 C 321.71 378.92, 321.94 379.02, 322.16 379.41 C 322.37 379.80, 322.27 380.06, 321.90 380.61 C 321.54 381.16, 321.35 381.50, 320.34 382.16 C 319.33 382.83, 318.55 383.17, 316.87 383.93 C 315.18 384.69, 313.97 385.22, 311.91 385.96 C 309.85 386.70, 308.65 387.02, 306.57 387.63 C 304.49 388.24, 303.25 388.56, 301.51 389.00 C 299.77 389.44, 299.01 389.48, 297.86 389.81 C 296.71 390.14, 296.16 390.24, 295.75 390.65 C 295.34 391.06, 295.34 391.50, 295.80 391.88" style="stroke: black; fill: black;"/><path d="M 352.88,347.15 C 352.42 347.30, 352.20 347.49, 351.53 348.39 C 350.85 349.29, 350.50 349.80, 349.48 351.66 C 348.46 353.52, 347.87 354.93, 346.43 357.70 C 344.99 360.47, 344.10 362.30, 342.28 365.50 C 340.46 368.71, 339.25 370.52, 337.34 373.72 C 335.43 376.93, 334.45 378.61, 332.73 381.53 C 331.01 384.45, 329.95 385.91, 328.73 388.32 C 327.52 390.74, 327.28 391.87, 326.68 393.59 C 326.07 395.31, 325.84 395.90, 325.71 396.92 C 325.57 397.93, 325.88 398.19, 326.02 398.66 C 326.15 399.14, 326.21 399.18, 326.39 399.30 C 326.58 399.42, 326.76 399.39, 326.93 399.26 C 327.09 399.13, 327.07 399.03, 327.21 398.66 C 327.34 398.29, 327.24 398.25, 327.60 397.43 C 327.96 396.60, 328.26 396.11, 329.01 394.56 C 329.76 393.00, 330.14 391.99, 331.34 389.65 C 332.55 387.31, 333.39 385.77, 335.03 382.85 C 336.67 379.93, 337.61 378.23, 339.54 375.05 C 341.48 371.87, 342.71 370.09, 344.71 366.96 C 346.70 363.83, 347.89 362.14, 349.50 359.40 C 351.11 356.65, 351.89 355.24, 352.74 353.23 C 353.59 351.23, 353.53 350.51, 353.75 349.38 C 353.98 348.26, 354.03 348.06, 353.85 347.61 C 353.68 347.17, 353.35 346.99, 352.88 347.15" style="stroke: black; fill: black;"/><path d="M 374.38,344.58 C 373.83 344.89, 373.61 345.28, 372.65 346.57 C 371.70 347.87, 370.96 348.74, 369.59 351.07 C 368.23 353.39, 367.51 355.16, 365.83 358.21 C 364.16 361.26, 363.14 363.09, 361.22 366.32 C 359.31 369.55, 358.10 371.26, 356.25 374.34 C 354.41 377.42, 353.38 378.98, 352.00 381.71 C 350.62 384.44, 350.11 385.79, 349.36 387.97 C 348.61 390.16, 348.34 391.02, 348.24 392.62 C 348.14 394.22, 348.45 395.03, 348.87 395.98 C 349.28 396.92, 349.88 397.18, 350.31 397.36 C 350.74 397.54, 350.96 397.26, 351.01 396.88 C 351.07 396.51, 350.66 396.28, 350.57 395.48 C 350.49 394.69, 350.31 394.23, 350.57 392.91 C 350.83 391.60, 351.09 390.89, 351.88 388.91 C 352.67 386.92, 353.21 385.63, 354.53 382.98 C 355.85 380.33, 356.68 378.71, 358.48 375.66 C 360.27 372.61, 361.49 370.88, 363.49 367.71 C 365.50 364.53, 366.64 362.75, 368.51 359.79 C 370.38 356.83, 371.55 355.30, 372.85 352.90 C 374.15 350.50, 374.51 349.36, 375.02 347.79 C 375.54 346.21, 375.54 345.68, 375.41 345.04 C 375.28 344.40, 374.93 344.28, 374.38 344.58" style="stroke: black; fill: black;"/><path d="M 404.38,372.59 C 404.33 372.03, 404.25 371.23, 403.28 370.60 C 402.31 369.96, 401.33 369.41, 399.53 369.42 C 397.72 369.42, 396.52 369.65, 394.26 370.62 C 392.00 371.60, 390.63 372.57, 388.23 374.30 C 385.84 376.03, 384.45 377.18, 382.27 379.27 C 380.10 381.36, 378.99 382.62, 377.37 384.74 C 375.74 386.87, 374.92 387.94, 374.14 389.90 C 373.37 391.87, 373.24 392.89, 373.50 394.58 C 373.77 396.27, 374.23 397.17, 375.46 398.35 C 376.69 399.53, 377.64 400.01, 379.66 400.47 C 381.68 400.93, 383.02 401.00, 385.55 400.65 C 388.08 400.29, 389.66 399.77, 392.30 398.70 C 394.94 397.63, 396.32 396.80, 398.76 395.29 C 401.19 393.78, 402.47 392.93, 404.49 391.15 C 406.51 389.37, 407.59 388.28, 408.85 386.39 C 410.10 384.49, 410.37 383.45, 410.77 381.68 C 411.17 379.90, 411.13 378.99, 410.84 377.50 C 410.55 376.00, 410.18 375.21, 409.33 374.22 C 408.48 373.22, 407.65 372.78, 406.58 372.53 C 405.52 372.28, 404.54 372.60, 404.01 372.95 C 403.48 373.30, 403.58 373.89, 403.94 374.28 C 404.30 374.68, 405.11 374.60, 405.80 374.92 C 406.49 375.24, 406.88 375.27, 407.39 375.87 C 407.90 376.48, 408.19 376.91, 408.37 377.94 C 408.54 378.98, 408.62 379.70, 408.25 381.05 C 407.87 382.41, 407.65 383.19, 406.49 384.72 C 405.32 386.26, 404.32 387.18, 402.42 388.72 C 400.53 390.26, 399.31 391.09, 397.03 392.43 C 394.74 393.77, 393.40 394.46, 390.99 395.42 C 388.58 396.38, 387.15 396.79, 384.98 397.21 C 382.82 397.62, 381.74 397.63, 380.15 397.50 C 378.56 397.36, 377.91 397.17, 377.03 396.53 C 376.14 395.89, 375.82 395.40, 375.73 394.30 C 375.64 393.20, 375.74 392.52, 376.56 391.01 C 377.38 389.50, 378.23 388.60, 379.84 386.75 C 381.44 384.90, 382.48 383.65, 384.59 381.76 C 386.70 379.87, 388.13 378.87, 390.37 377.31 C 392.61 375.75, 393.91 374.89, 395.79 373.97 C 397.67 373.05, 398.46 372.92, 399.75 372.72 C 401.04 372.51, 401.47 372.79, 402.22 372.94 C 402.98 373.08, 403.08 373.50, 403.51 373.43 C 403.94 373.36, 404.43 373.16, 404.38 372.59" style="stroke: black; fill: black;"/><path d="M 446.19,346.28 C 445.63 346.26, 445.14 346.38, 444.15 347.08 C 443.16 347.78, 442.49 348.21, 441.23 349.79 C 439.97 351.36, 439.23 352.53, 437.84 354.97 C 436.44 357.41, 435.78 359.00, 434.25 361.99 C 432.72 364.99, 431.83 366.70, 430.19 369.94 C 428.55 373.18, 427.69 375.00, 426.03 378.18 C 424.38 381.36, 423.40 382.96, 421.91 385.82 C 420.42 388.68, 419.64 390.07, 418.56 392.48 C 417.48 394.89, 417.09 396.08, 416.53 397.86 C 415.97 399.65, 415.88 400.29, 415.74 401.41 C 415.61 402.53, 415.69 403.02, 415.87 403.46 C 416.05 403.90, 416.33 403.92, 416.65 403.61 C 416.97 403.30, 417.02 402.88, 417.49 401.91 C 417.95 400.95, 418.23 400.45, 418.98 398.80 C 419.73 397.15, 420.16 396.03, 421.23 393.68 C 422.30 391.34, 422.92 389.92, 424.33 387.06 C 425.75 384.20, 426.68 382.55, 428.32 379.37 C 429.97 376.19, 430.84 374.36, 432.55 371.18 C 434.27 368.00, 435.20 366.32, 436.90 363.46 C 438.61 360.61, 439.65 359.23, 441.09 356.90 C 442.53 354.57, 443.13 353.42, 444.11 351.81 C 445.09 350.20, 445.42 349.77, 445.99 348.85 C 446.56 347.93, 446.90 347.71, 446.94 347.20 C 446.98 346.68, 446.75 346.30, 446.19 346.28" style="stroke: black; fill: black;"/><path d="M 437.39,369.33 C 437.88 369.51, 438.22 369.42, 439.30 369.22 C 440.38 369.03, 441.18 368.74, 442.78 368.36 C 444.37 367.99, 445.43 367.93, 447.29 367.33 C 449.15 366.73, 451.17 366.09, 452.07 365.35 C 452.97 364.61, 452.88 364.02, 451.76 363.64 C 450.64 363.26, 448.49 363.24, 446.47 363.46 C 444.44 363.68, 443.31 364.09, 441.65 364.73 C 439.98 365.37, 439.11 365.93, 438.15 366.64 C 437.19 367.36, 436.98 367.78, 436.83 368.32 C 436.68 368.85, 436.89 369.15, 437.39 369.33" style="stroke: black; fill: black;"/><path d="M 558.16,339.82 C 557.70 340.05, 557.51 340.33, 556.92 341.34 C 556.33 342.35, 556.07 342.96, 555.21 344.85 C 554.36 346.74, 553.89 348.02, 552.63 350.79 C 551.36 353.56, 550.63 355.30, 548.88 358.69 C 547.14 362.08, 546.00 364.06, 543.92 367.75 C 541.84 371.44, 540.61 373.49, 538.48 377.12 C 536.35 380.75, 535.20 382.68, 533.28 385.90 C 531.35 389.12, 530.35 390.56, 528.84 393.23 C 527.33 395.91, 526.62 397.20, 525.73 399.27 C 524.84 401.35, 524.66 402.26, 524.39 403.62 C 524.11 404.98, 524.20 405.54, 524.34 406.07 C 524.49 406.60, 524.75 406.63, 525.12 406.26 C 525.48 405.89, 525.56 405.41, 526.17 404.24 C 526.78 403.07, 527.15 402.35, 528.15 400.41 C 529.15 398.46, 529.74 397.18, 531.17 394.52 C 532.60 391.85, 533.44 390.33, 535.28 387.07 C 537.13 383.82, 538.27 381.88, 540.40 378.24 C 542.52 374.61, 543.76 372.56, 545.92 368.91 C 548.09 365.26, 549.27 363.30, 551.22 359.98 C 553.18 356.66, 554.25 355.07, 555.70 352.31 C 557.16 349.55, 557.79 348.21, 558.51 346.17 C 559.23 344.14, 559.18 343.33, 559.32 342.13 C 559.46 340.93, 559.45 340.62, 559.22 340.16 C 558.98 339.70, 558.61 339.58, 558.16 339.82" style="stroke: black; fill: black;"/><path d="M 632.10,373.58 C 631.85 373.09, 631.44 372.79, 630.51 372.38 C 629.58 371.97, 628.99 371.61, 627.46 371.51 C 625.93 371.41, 624.82 371.43, 622.87 371.89 C 620.91 372.35, 619.93 372.79, 617.68 373.81 C 615.42 374.82, 614.05 375.32, 611.60 376.95 C 609.15 378.57, 607.78 379.83, 605.43 381.93 C 603.08 384.03, 601.80 385.22, 599.85 387.43 C 597.89 389.65, 596.91 390.87, 595.66 392.98 C 594.41 395.10, 593.89 396.20, 593.60 398.01 C 593.30 399.83, 593.46 400.76, 594.18 402.07 C 594.89 403.38, 595.61 403.94, 597.19 404.57 C 598.77 405.20, 599.84 405.37, 602.08 405.21 C 604.32 405.05, 605.75 404.72, 608.39 403.78 C 611.03 402.84, 612.46 402.00, 615.28 400.51 C 618.09 399.02, 619.56 398.14, 622.46 396.35 C 625.36 394.57, 627.01 393.53, 629.77 391.57 C 632.53 389.62, 633.99 388.57, 636.26 386.58 C 638.53 384.59, 639.57 383.49, 641.10 381.63 C 642.64 379.77, 643.33 378.76, 643.92 377.28 C 644.52 375.79, 644.44 374.92, 644.08 374.19 C 643.72 373.46, 643.12 373.28, 642.12 373.64 C 641.13 374.00, 640.35 374.63, 639.11 375.99 C 637.86 377.36, 637.13 378.45, 635.90 380.47 C 634.68 382.50, 633.98 383.89, 632.98 386.14 C 631.98 388.39, 631.46 389.62, 630.89 391.73 C 630.33 393.84, 630.15 394.93, 630.15 396.69 C 630.15 398.45, 630.30 399.25, 630.88 400.52 C 631.46 401.79, 632.19 402.33, 633.06 403.04 C 633.93 403.74, 634.39 403.90, 635.22 404.05 C 636.04 404.20, 636.77 404.10, 637.19 403.80 C 637.62 403.50, 637.60 402.95, 637.35 402.57 C 637.10 402.18, 636.47 402.17, 635.93 401.87 C 635.39 401.58, 635.21 401.58, 634.65 401.11 C 634.09 400.64, 633.49 400.37, 633.12 399.52 C 632.76 398.66, 632.67 398.19, 632.82 396.83 C 632.98 395.46, 633.22 394.50, 633.90 392.68 C 634.58 390.87, 635.12 389.76, 636.22 387.75 C 637.33 385.74, 638.26 384.56, 639.45 382.63 C 640.63 380.71, 641.35 379.66, 642.14 378.13 C 642.94 376.60, 643.22 375.76, 643.41 374.98 C 643.60 374.19, 643.42 374.00, 643.09 374.22 C 642.76 374.44, 642.59 374.97, 641.75 376.08 C 640.91 377.18, 640.39 378.07, 638.90 379.73 C 637.41 381.39, 636.44 382.44, 634.29 384.36 C 632.14 386.27, 630.81 387.40, 628.16 389.31 C 625.50 391.23, 623.85 392.25, 621.00 393.93 C 618.14 395.61, 616.64 396.42, 613.88 397.71 C 611.12 399.00, 609.64 399.55, 607.20 400.40 C 604.76 401.24, 603.53 401.59, 601.67 401.94 C 599.81 402.29, 599.04 402.31, 597.90 402.15 C 596.75 401.98, 596.32 401.83, 595.93 401.12 C 595.54 400.40, 595.50 399.88, 595.95 398.57 C 596.39 397.27, 596.89 396.38, 598.15 394.58 C 599.41 392.79, 600.37 391.64, 602.25 389.59 C 604.13 387.54, 605.30 386.28, 607.55 384.34 C 609.80 382.39, 611.19 381.33, 613.50 379.85 C 615.80 378.37, 617.04 377.85, 619.08 376.94 C 621.12 376.03, 622.02 375.70, 623.68 375.30 C 625.35 374.89, 626.16 374.98, 627.41 374.93 C 628.66 374.87, 629.07 375.04, 629.93 375.01 C 630.80 374.99, 631.30 375.10, 631.74 374.81 C 632.17 374.53, 632.35 374.06, 632.10 373.58" style="stroke: black; fill: black;"/><path d="M 654.83,378.87 C 654.44 378.97, 654.28 379.02, 653.87 379.58 C 653.46 380.14, 653.30 380.61, 652.78 381.66 C 652.25 382.71, 651.93 383.33, 651.23 384.84 C 650.54 386.35, 650.09 387.50, 649.30 389.20 C 648.51 390.90, 647.97 391.82, 647.27 393.34 C 646.57 394.87, 646.11 395.71, 645.80 396.84 C 645.50 397.98, 645.41 398.64, 645.76 399.02 C 646.10 399.41, 646.61 399.36, 647.52 398.77 C 648.43 398.18, 649.07 397.54, 650.32 396.08 C 651.57 394.61, 652.27 393.41, 653.79 391.47 C 655.30 389.54, 656.17 388.30, 657.89 386.40 C 659.62 384.50, 660.58 383.56, 662.40 381.96 C 664.23 380.37, 665.30 379.58, 667.02 378.41 C 668.75 377.24, 669.73 376.73, 671.02 376.10 C 672.32 375.46, 672.82 375.26, 673.49 375.25 C 674.16 375.24, 674.30 375.41, 674.38 376.05 C 674.46 376.68, 674.28 377.19, 673.89 378.42 C 673.50 379.66, 673.09 380.62, 672.43 382.23 C 671.77 383.84, 671.33 384.83, 670.61 386.46 C 669.88 388.10, 669.21 388.98, 668.80 390.40 C 668.39 391.81, 668.23 392.72, 668.56 393.54 C 668.89 394.35, 669.37 394.67, 670.46 394.47 C 671.56 394.28, 672.36 393.83, 674.03 392.57 C 675.71 391.30, 676.72 390.11, 678.83 388.13 C 680.93 386.16, 682.16 384.65, 684.56 382.69 C 686.95 380.72, 688.51 379.77, 690.78 378.31 C 693.06 376.84, 694.13 376.16, 695.93 375.37 C 697.73 374.57, 698.57 374.38, 699.78 374.32 C 700.98 374.27, 701.34 374.48, 701.95 375.08 C 702.56 375.68, 702.66 376.20, 702.83 377.33 C 703.01 378.45, 703.07 379.16, 702.82 380.70 C 702.56 382.23, 702.24 383.15, 701.54 385.01 C 700.85 386.86, 700.28 387.98, 699.34 389.98 C 698.40 391.98, 697.64 393.07, 696.85 395.01 C 696.06 396.94, 695.44 398.59, 695.39 399.65 C 695.34 400.71, 695.78 400.93, 696.62 400.29 C 697.45 399.65, 698.40 398.21, 699.57 396.46 C 700.75 394.71, 701.44 393.58, 702.49 391.53 C 703.54 389.47, 704.12 388.28, 704.84 386.18 C 705.55 384.09, 705.93 382.97, 706.06 381.06 C 706.19 379.15, 706.01 378.14, 705.48 376.62 C 704.94 375.09, 704.49 374.36, 703.36 373.45 C 702.23 372.54, 701.52 372.19, 699.84 372.05 C 698.15 371.92, 697.10 372.09, 694.95 372.78 C 692.80 373.47, 691.57 374.06, 689.07 375.52 C 686.58 376.97, 685.09 378.12, 682.49 380.05 C 679.90 381.98, 678.30 383.20, 676.11 385.17 C 673.91 387.14, 672.86 388.35, 671.53 389.91 C 670.20 391.46, 669.80 392.18, 669.45 392.93 C 669.10 393.69, 669.34 393.90, 669.79 393.67 C 670.24 393.44, 670.86 392.92, 671.68 391.80 C 672.50 390.68, 673.04 389.70, 673.90 388.06 C 674.76 386.41, 675.34 385.39, 675.98 383.57 C 676.62 381.74, 677.03 380.59, 677.09 378.92 C 677.15 377.26, 676.95 376.36, 676.30 375.25 C 675.64 374.13, 675.07 373.66, 673.82 373.33 C 672.57 372.99, 671.76 373.06, 670.06 373.56 C 668.37 374.05, 667.30 374.62, 665.35 375.81 C 663.40 376.99, 662.32 377.87, 660.32 379.50 C 658.32 381.13, 657.29 382.06, 655.36 383.95 C 653.42 385.84, 652.28 386.97, 650.65 388.94 C 649.01 390.92, 648.20 392.13, 647.19 393.83 C 646.17 395.53, 645.81 396.37, 645.58 397.45 C 645.35 398.53, 645.54 399.08, 646.05 399.23 C 646.56 399.38, 647.28 399.05, 648.14 398.20 C 648.99 397.35, 649.41 396.45, 650.32 394.99 C 651.23 393.53, 651.78 392.59, 652.68 390.89 C 653.59 389.19, 654.13 388.07, 654.84 386.48 C 655.55 384.88, 655.92 384.18, 656.23 382.93 C 656.55 381.68, 656.51 380.99, 656.43 380.21 C 656.35 379.44, 656.14 379.32, 655.82 379.05 C 655.50 378.78, 655.22 378.76, 654.83 378.87" style="stroke: black; fill: black;"/><path d="M 787.03,346.54 C 786.82 346.85, 786.87 346.94, 786.85 347.57 C 786.84 348.20, 786.87 348.47, 786.98 349.69 C 787.08 350.92, 787.25 351.85, 787.37 353.70 C 787.49 355.55, 787.63 356.60, 787.60 358.94 C 787.56 361.28, 787.42 362.67, 787.19 365.40 C 786.95 368.13, 786.79 369.79, 786.41 372.60 C 786.02 375.41, 785.80 376.83, 785.27 379.44 C 784.75 382.05, 784.48 383.29, 783.79 385.64 C 783.09 388.00, 782.72 389.21, 781.79 391.21 C 780.85 393.22, 780.30 394.02, 779.12 395.65 C 777.93 397.28, 777.20 398.07, 775.87 399.36 C 774.53 400.65, 773.87 401.24, 772.44 402.11 C 771.00 402.99, 770.23 403.17, 768.68 403.72 C 767.13 404.26, 766.23 404.50, 764.69 404.82 C 763.16 405.14, 762.46 405.25, 761.02 405.31 C 759.59 405.37, 758.91 405.25, 757.53 405.11 C 756.14 404.97, 755.30 404.80, 754.08 404.62 C 752.86 404.45, 752.39 404.31, 751.44 404.24 C 750.49 404.16, 749.83 404.02, 749.33 404.24 C 748.84 404.45, 748.70 404.83, 748.98 405.30 C 749.26 405.77, 749.84 406.12, 750.74 406.59 C 751.64 407.06, 752.19 407.33, 753.49 407.65 C 754.79 407.97, 755.72 408.06, 757.25 408.18 C 758.79 408.30, 759.54 408.33, 761.15 408.26 C 762.76 408.18, 763.60 408.14, 765.30 407.79 C 767.01 407.45, 767.96 407.16, 769.69 406.52 C 771.42 405.88, 772.30 405.60, 773.95 404.59 C 775.59 403.58, 776.41 402.93, 777.92 401.49 C 779.42 400.04, 780.18 399.17, 781.49 397.37 C 782.80 395.57, 783.41 394.64, 784.45 392.47 C 785.49 390.30, 785.89 389.00, 786.67 386.52 C 787.44 384.04, 787.72 382.77, 788.32 380.09 C 788.92 377.40, 789.19 375.96, 789.67 373.09 C 790.14 370.22, 790.38 368.55, 790.68 365.74 C 790.99 362.93, 791.07 361.50, 791.17 359.04 C 791.27 356.59, 791.31 355.48, 791.19 353.46 C 791.07 351.44, 790.99 350.32, 790.57 348.96 C 790.14 347.60, 789.59 347.22, 789.06 346.64 C 788.53 346.05, 788.33 346.04, 787.93 346.02 C 787.52 346.00, 787.25 346.23, 787.03 346.54" style="stroke: black; fill: black;"/><path d="M 809.15,374.98 C 808.69 375.11, 808.44 375.26, 807.87 376.03 C 807.29 376.79, 806.93 377.40, 806.30 378.79 C 805.67 380.17, 805.35 381.09, 804.71 382.94 C 804.06 384.78, 803.72 386.00, 803.08 388.02 C 802.45 390.04, 801.93 391.14, 801.53 393.04 C 801.13 394.95, 801.04 395.90, 801.07 397.54 C 801.09 399.18, 801.17 399.96, 801.66 401.24 C 802.15 402.52, 802.48 403.11, 803.51 403.94 C 804.54 404.77, 805.32 405.13, 806.80 405.39 C 808.29 405.65, 809.18 405.60, 810.93 405.24 C 812.68 404.87, 813.67 404.53, 815.58 403.58 C 817.48 402.62, 818.52 401.96, 820.46 400.48 C 822.39 398.99, 823.38 398.03, 825.25 396.14 C 827.11 394.25, 828.06 393.12, 829.77 391.03 C 831.48 388.95, 832.38 387.80, 833.79 385.71 C 835.20 383.62, 836.15 382.33, 836.82 380.60 C 837.48 378.87, 837.39 377.81, 837.14 377.06 C 836.89 376.32, 836.30 376.34, 835.57 376.88 C 834.84 377.42, 834.36 378.16, 833.48 379.77 C 832.61 381.37, 831.97 382.66, 831.19 384.89 C 830.41 387.11, 830.08 388.62, 829.59 390.90 C 829.11 393.19, 828.91 394.42, 828.76 396.32 C 828.61 398.21, 828.72 399.08, 828.85 400.37 C 828.97 401.65, 829.06 402.01, 829.40 402.74 C 829.75 403.48, 830.12 403.78, 830.57 404.04 C 831.03 404.31, 831.41 404.23, 831.67 404.06 C 831.93 403.90, 831.90 403.46, 831.87 403.23 C 831.83 403.00, 831.62 403.11, 831.50 402.91 C 831.37 402.70, 831.26 402.70, 831.23 402.19 C 831.19 401.68, 831.21 401.44, 831.33 400.35 C 831.44 399.26, 831.45 398.44, 831.81 396.74 C 832.16 395.04, 832.40 393.93, 833.09 391.85 C 833.79 389.77, 834.51 388.51, 835.29 386.34 C 836.07 384.18, 836.64 382.82, 836.99 381.04 C 837.35 379.26, 837.24 378.31, 837.05 377.45 C 836.86 376.58, 836.63 376.38, 836.04 376.72 C 835.46 377.06, 835.11 377.75, 834.11 379.17 C 833.11 380.59, 832.42 381.86, 831.04 383.80 C 829.66 385.75, 828.84 386.93, 827.20 388.92 C 825.56 390.91, 824.60 391.98, 822.84 393.76 C 821.08 395.53, 820.14 396.42, 818.38 397.78 C 816.62 399.14, 815.68 399.70, 814.04 400.56 C 812.40 401.41, 811.55 401.66, 810.17 402.05 C 808.78 402.43, 808.16 402.50, 807.11 402.49 C 806.07 402.48, 805.58 402.40, 804.95 402.00 C 804.32 401.60, 804.18 401.36, 803.97 400.49 C 803.75 399.62, 803.74 398.97, 803.87 397.65 C 804.00 396.32, 804.10 395.53, 804.64 393.85 C 805.17 392.17, 805.78 391.16, 806.53 389.23 C 807.27 387.31, 807.73 386.06, 808.38 384.23 C 809.03 382.39, 809.38 381.51, 809.78 380.06 C 810.18 378.61, 810.31 377.93, 810.39 377.00 C 810.47 376.07, 810.43 375.81, 810.18 375.40 C 809.94 375.00, 809.62 374.86, 809.15 374.98" style="stroke: black; fill: black;"/><path d="M 857.33,377.32 C 856.92 377.59, 856.90 377.90, 856.40 378.80 C 855.90 379.69, 855.56 380.36, 854.83 381.79 C 854.09 383.23, 853.65 384.20, 852.71 385.97 C 851.76 387.75, 851.05 388.84, 850.10 390.66 C 849.14 392.48, 848.49 393.56, 847.92 395.07 C 847.35 396.58, 847.08 397.29, 847.24 398.21 C 847.39 399.12, 847.79 399.62, 848.69 399.64 C 849.60 399.66, 850.32 399.34, 851.76 398.30 C 853.21 397.26, 853.94 396.28, 855.91 394.43 C 857.88 392.58, 859.07 391.21, 861.63 389.05 C 864.19 386.89, 865.89 385.54, 868.73 383.64 C 871.56 381.75, 873.18 380.83, 875.80 379.58 C 878.42 378.33, 879.72 377.94, 881.83 377.40 C 883.94 376.85, 884.90 376.78, 886.35 376.86 C 887.80 376.94, 888.38 377.18, 889.06 377.80 C 889.74 378.42, 889.81 378.83, 889.76 379.96 C 889.71 381.09, 889.47 381.81, 888.82 383.46 C 888.18 385.11, 887.60 386.21, 886.52 388.22 C 885.44 390.22, 884.62 391.49, 883.44 393.50 C 882.26 395.51, 881.50 396.56, 880.60 398.26 C 879.71 399.96, 879.40 400.82, 878.96 401.98 C 878.53 403.14, 878.39 403.56, 878.42 404.07 C 878.45 404.57, 878.66 404.70, 879.12 404.50 C 879.59 404.30, 879.93 403.99, 880.76 403.07 C 881.59 402.16, 882.13 401.48, 883.27 399.94 C 884.41 398.40, 885.17 397.39, 886.48 395.39 C 887.79 393.38, 888.72 392.12, 889.82 389.93 C 890.92 387.74, 891.49 386.47, 891.98 384.44 C 892.47 382.40, 892.57 381.37, 892.27 379.74 C 891.98 378.10, 891.63 377.30, 890.50 376.24 C 889.37 375.19, 888.49 374.77, 886.63 374.47 C 884.77 374.16, 883.63 374.22, 881.21 374.71 C 878.80 375.21, 877.36 375.63, 874.55 376.94 C 871.74 378.24, 870.13 379.33, 867.16 381.25 C 864.18 383.17, 862.46 384.49, 859.66 386.54 C 856.87 388.59, 855.22 389.61, 853.18 391.50 C 851.14 393.38, 850.46 394.57, 849.45 395.96 C 848.44 397.35, 848.26 397.92, 848.11 398.46 C 847.96 398.99, 848.19 399.00, 848.71 398.63 C 849.24 398.26, 849.82 397.83, 850.74 396.60 C 851.65 395.36, 852.22 394.24, 853.29 392.48 C 854.37 390.72, 855.13 389.65, 856.12 387.80 C 857.11 385.96, 857.68 384.93, 858.27 383.27 C 858.85 381.60, 859.01 380.67, 859.06 379.50 C 859.10 378.33, 858.83 377.87, 858.49 377.43 C 858.14 377.00, 857.75 377.04, 857.33 377.32" style="stroke: black; fill: black;"/><path d="M 924.60,343.64 C 924.03 344.12, 923.77 344.92, 922.98 346.40 C 922.18 347.89, 921.67 348.74, 920.64 351.06 C 919.62 353.38, 919.17 355.01, 917.87 358.00 C 916.57 360.99, 915.78 362.83, 914.15 366.02 C 912.52 369.22, 911.47 370.82, 909.72 373.97 C 907.96 377.12, 907.01 378.89, 905.36 381.75 C 903.70 384.61, 902.76 385.91, 901.44 388.26 C 900.12 390.62, 899.43 391.80, 898.74 393.54 C 898.05 395.29, 897.93 396.03, 898.00 396.99 C 898.07 397.94, 898.31 398.21, 899.08 398.31 C 899.85 398.42, 900.53 398.32, 901.83 397.51 C 903.14 396.71, 903.96 395.86, 905.59 394.30 C 907.23 392.75, 908.07 391.57, 910.02 389.73 C 911.97 387.88, 913.14 386.84, 915.33 385.09 C 917.52 383.33, 918.74 382.39, 920.97 380.95 C 923.20 379.50, 924.44 378.82, 926.49 377.86 C 928.54 376.90, 929.65 376.58, 931.20 376.15 C 932.75 375.71, 933.38 375.59, 934.24 375.69 C 935.11 375.79, 935.29 375.98, 935.54 376.66 C 935.80 377.34, 935.72 377.90, 935.53 379.10 C 935.34 380.29, 935.12 381.05, 934.61 382.64 C 934.10 384.24, 933.72 385.20, 932.99 387.06 C 932.26 388.91, 931.73 390.06, 930.95 391.91 C 930.17 393.76, 929.70 394.73, 929.09 396.30 C 928.48 397.87, 928.22 398.59, 927.90 399.78 C 927.59 400.96, 927.54 401.47, 927.52 402.22 C 927.50 402.97, 927.60 403.25, 927.81 403.54 C 928.02 403.84, 928.26 403.85, 928.55 403.68 C 928.85 403.52, 928.91 403.32, 929.27 402.73 C 929.64 402.13, 929.87 401.76, 930.40 400.72 C 930.93 399.69, 931.17 399.03, 931.91 397.55 C 932.65 396.07, 933.22 395.17, 934.11 393.33 C 934.99 391.50, 935.55 390.33, 936.32 388.37 C 937.09 386.42, 937.52 385.41, 937.96 383.57 C 938.40 381.73, 938.64 380.78, 938.53 379.18 C 938.42 377.58, 938.18 376.70, 937.42 375.59 C 936.66 374.48, 936.08 374.06, 934.73 373.64 C 933.37 373.22, 932.55 373.21, 930.65 373.49 C 928.76 373.77, 927.54 374.10, 925.25 375.04 C 922.97 375.98, 921.63 376.73, 919.24 378.21 C 916.84 379.68, 915.62 380.68, 913.27 382.43 C 910.93 384.17, 909.62 385.13, 907.51 386.93 C 905.40 388.73, 904.28 389.77, 902.71 391.43 C 901.14 393.08, 900.45 394.02, 899.65 395.21 C 898.85 396.41, 898.74 396.96, 898.70 397.40 C 898.67 397.84, 898.97 397.93, 899.46 397.40 C 899.95 396.86, 900.23 396.26, 901.15 394.72 C 902.07 393.19, 902.74 392.06, 904.05 389.73 C 905.36 387.40, 906.11 385.97, 907.69 383.07 C 909.28 380.17, 910.19 378.38, 911.96 375.23 C 913.73 372.08, 914.79 370.48, 916.55 367.30 C 918.31 364.13, 919.29 362.32, 920.76 359.34 C 922.23 356.37, 922.94 354.82, 923.90 352.43 C 924.85 350.03, 925.15 349.03, 925.53 347.35 C 925.91 345.67, 926.00 344.76, 925.81 344.02 C 925.62 343.28, 925.16 343.17, 924.60 343.64" style="stroke: black; fill: black;"/><path d="M 970.34,383.44 C 970.49 382.83, 970.37 382.01, 969.87 380.99 C 969.36 379.98, 968.98 379.31, 967.81 378.37 C 966.63 377.42, 965.71 376.77, 963.99 376.26 C 962.27 375.75, 961.25 375.60, 959.18 375.82 C 957.12 376.04, 955.89 376.27, 953.67 377.34 C 951.46 378.42, 950.07 379.39, 948.13 381.21 C 946.19 383.03, 945.19 384.31, 943.97 386.45 C 942.76 388.59, 942.29 389.86, 942.06 391.92 C 941.82 393.97, 941.95 395.04, 942.81 396.71 C 943.67 398.38, 944.61 399.25, 946.36 400.27 C 948.10 401.28, 949.26 401.53, 951.53 401.79 C 953.81 402.05, 955.19 401.92, 957.72 401.55 C 960.25 401.18, 961.79 400.87, 964.18 399.94 C 966.57 399.02, 967.73 398.28, 969.68 396.94 C 971.62 395.59, 972.49 394.77, 973.91 393.22 C 975.32 391.67, 975.98 390.81, 976.76 389.18 C 977.54 387.55, 977.69 386.58, 977.81 385.07 C 977.93 383.56, 977.76 382.75, 977.36 381.66 C 976.95 380.57, 976.44 380.12, 975.80 379.61 C 975.15 379.10, 974.58 379.03, 974.13 379.10 C 973.69 379.17, 973.54 379.58, 973.57 379.96 C 973.60 380.34, 974.00 380.51, 974.26 381.00 C 974.53 381.49, 974.75 381.65, 974.91 382.41 C 975.07 383.17, 975.22 383.70, 975.08 384.80 C 974.95 385.91, 974.90 386.65, 974.24 387.93 C 973.57 389.22, 973.03 389.93, 971.77 391.21 C 970.52 392.50, 969.71 393.25, 967.96 394.37 C 966.21 395.49, 965.18 396.06, 963.03 396.82 C 960.88 397.57, 959.46 397.78, 957.21 398.13 C 954.96 398.49, 953.70 398.65, 951.79 398.58 C 949.88 398.50, 949.01 398.37, 947.65 397.77 C 946.29 397.17, 945.57 396.65, 944.98 395.57 C 944.39 394.48, 944.33 393.83, 944.69 392.35 C 945.04 390.87, 945.57 389.87, 946.74 388.16 C 947.91 386.46, 948.85 385.38, 950.55 383.82 C 952.24 382.26, 953.43 381.35, 955.22 380.38 C 957.02 379.41, 957.98 379.16, 959.54 378.98 C 961.09 378.79, 961.76 379.03, 963.01 379.44 C 964.26 379.85, 964.87 380.39, 965.78 381.03 C 966.70 381.67, 966.92 382.02, 967.58 382.63 C 968.24 383.24, 968.53 383.92, 969.09 384.08 C 969.64 384.24, 970.18 384.06, 970.34 383.44" style="stroke: black; fill: black;"/><path d="M 1005.11,369.63 C 1004.80 369.80, 1004.87 369.86, 1004.57 370.36 C 1004.28 370.86, 1004.13 371.06, 1003.64 372.15 C 1003.14 373.23, 1002.82 374.03, 1002.12 375.79 C 1001.41 377.56, 1001.02 378.75, 1000.10 380.98 C 999.17 383.21, 998.53 384.59, 997.49 386.94 C 996.45 389.28, 995.86 390.46, 994.90 392.71 C 993.94 394.96, 993.50 396.18, 992.70 398.19 C 991.90 400.20, 991.38 401.15, 990.88 402.74 C 990.39 404.34, 990.33 405.06, 990.23 406.17 C 990.13 407.27, 990.18 407.81, 990.39 408.27 C 990.60 408.73, 990.91 408.76, 991.27 408.45 C 991.63 408.13, 991.75 407.64, 992.20 406.70 C 992.66 405.76, 992.87 405.22, 993.54 403.75 C 994.20 402.29, 994.68 401.33, 995.54 399.39 C 996.40 397.44, 996.82 396.21, 997.84 394.02 C 998.86 391.83, 999.50 390.73, 1000.65 388.43 C 1001.80 386.12, 1002.58 384.75, 1003.59 382.50 C 1004.61 380.25, 1005.05 379.04, 1005.73 377.18 C 1006.42 375.31, 1006.77 374.49, 1007.01 373.17 C 1007.25 371.86, 1007.10 371.33, 1006.93 370.60 C 1006.76 369.86, 1006.52 369.69, 1006.16 369.50 C 1005.80 369.31, 1005.43 369.46, 1005.11 369.63" style="stroke: black; fill: black;"/><path d="M 1046.70,358.78 C 1046.12 358.63, 1045.60 358.60, 1044.29 359.10 C 1042.97 359.59, 1042.10 359.90, 1040.13 361.25 C 1038.16 362.61, 1036.77 363.69, 1034.44 365.87 C 1032.11 368.05, 1030.93 369.48, 1028.50 372.17 C 1026.07 374.87, 1024.60 376.44, 1022.30 379.33 C 1020.00 382.21, 1018.83 383.74, 1017.00 386.60 C 1015.16 389.45, 1014.35 390.92, 1013.13 393.59 C 1011.90 396.25, 1011.34 397.60, 1010.88 399.93 C 1010.42 402.27, 1010.40 403.42, 1010.81 405.25 C 1011.22 407.09, 1011.76 407.88, 1012.92 409.12 C 1014.08 410.35, 1014.86 410.80, 1016.61 411.42 C 1018.37 412.04, 1019.47 412.21, 1021.70 412.22 C 1023.94 412.24, 1025.25 412.07, 1027.79 411.51 C 1030.32 410.95, 1031.77 410.50, 1034.39 409.43 C 1037.01 408.36, 1038.53 407.61, 1040.88 406.14 C 1043.24 404.68, 1044.52 403.79, 1046.16 402.12 C 1047.79 400.45, 1048.49 399.46, 1049.06 397.80 C 1049.64 396.15, 1049.63 395.19, 1049.03 393.85 C 1048.43 392.51, 1047.66 391.89, 1046.05 391.11 C 1044.45 390.33, 1043.27 390.15, 1041.01 389.95 C 1038.74 389.76, 1037.27 389.87, 1034.72 390.12 C 1032.17 390.37, 1030.55 390.57, 1028.26 391.20 C 1025.96 391.83, 1024.78 392.44, 1023.25 393.27 C 1021.71 394.10, 1021.03 394.74, 1020.58 395.34 C 1020.13 395.93, 1020.30 396.20, 1021.01 396.25 C 1021.71 396.30, 1022.51 395.93, 1024.11 395.61 C 1025.71 395.28, 1026.80 394.96, 1029.00 394.62 C 1031.19 394.27, 1032.70 394.09, 1035.08 393.87 C 1037.45 393.65, 1038.86 393.54, 1040.87 393.50 C 1042.89 393.47, 1043.86 393.45, 1045.14 393.69 C 1046.43 393.93, 1046.94 394.06, 1047.29 394.69 C 1047.64 395.32, 1047.55 395.79, 1046.91 396.83 C 1046.27 397.87, 1045.65 398.61, 1044.09 399.89 C 1042.54 401.17, 1041.35 401.98, 1039.15 403.25 C 1036.94 404.51, 1035.51 405.24, 1033.08 406.22 C 1030.66 407.21, 1029.31 407.61, 1027.02 408.15 C 1024.73 408.69, 1023.55 408.83, 1021.63 408.94 C 1019.70 409.06, 1018.81 409.02, 1017.40 408.72 C 1015.99 408.42, 1015.44 408.24, 1014.59 407.45 C 1013.74 406.67, 1013.38 406.19, 1013.17 404.80 C 1012.95 403.42, 1013.01 402.54, 1013.53 400.54 C 1014.06 398.53, 1014.63 397.30, 1015.77 394.79 C 1016.91 392.29, 1017.53 390.77, 1019.24 388.01 C 1020.95 385.24, 1022.06 383.74, 1024.33 380.96 C 1026.59 378.18, 1028.08 376.62, 1030.55 374.11 C 1033.03 371.60, 1034.36 370.40, 1036.71 368.42 C 1039.06 366.44, 1040.54 365.63, 1042.32 364.21 C 1044.10 362.78, 1044.64 362.18, 1045.61 361.31 C 1046.58 360.43, 1046.96 360.33, 1047.17 359.82 C 1047.39 359.31, 1047.28 358.92, 1046.70 358.78" style="stroke: black; fill: black;"/></svg>